<svg xmlns="http://www.w3.org/2000/svg" width="267.615" height="289.337"
    viewBox="0 0 267.615 289.337">
    <defs>
        <clipPath id="clip-path">
            <path id="Clip_2" d="M0 0h133.84v263.272H0z" class="cls-1" fill="none"
                data-name="Clip 2" />
        </clipPath>
        <clipPath id="clip-path-2">
            <path id="Clip_5" d="M0 0h133.808v263.275H0z" class="cls-1" fill="none"
                data-name="Clip 5" />
        </clipPath>
    </defs>
    <g id="Group_9" data-name="Group 9" transform="translate(0 -.361)">
        <g id="Group_3" data-name="Group 3" transform="translate(133.775 .362)">
            <path id="Clip_2-2" d="M0 0h133.84v263.272H0z" class="cls-1" fill="none"
                data-name="Clip 2" />
            <g id="Group_3-2" class="cls-2" data-name="Group 3">
                <path id="Fill_1"
                    d="M106.722 4.414A46.925 46.925 0 0 0 44.33 27.157L0 127.263l42.544 96.072a46.959 46.959 0 0 1-.1 39.937c.034-.068.068-.13.1-.191L129.433 66.89a47.043 47.043 0 0 0-22.71-62.476"
                    class="cls-3" fill="#008cff" data-name="Fill 1" />
            </g>
        </g>
        <g id="Group_6" data-name="Group 6" transform="translate(0 .361)">
            <path id="Clip_5-2" d="M0 0h133.808v263.275H0z" class="cls-1" fill="none" data-name="Clip 5" />
            <g id="Group_6-2" class="cls-4" data-name="Group 6">
                <path id="Fill_4"
                    d="M91.27 223.338l42.539-96.072L89.485 27.16A46.949 46.949 0 1 0 4.406 66.893L91.27 263.077c.027.068.061.13.1.2a47 47 0 0 1-.1-39.937"
                    class="cls-5" fill="#ff9600" data-name="Fill 4" transform="translate(-.001)" />
            </g>
        </g>
        <path id="Fill_7"
            d="M89.542 95.78L46.979 0 4.409 95.78A46.694 46.694 0 0 0 4.5 135.6c.2.408.4.817.607 1.218.15.286.286.572.436.857.218.415.457.817.689 1.225.157.272.3.544.464.8.2.361.436.7.655 1.041a47.519 47.519 0 0 0 3 4.2c.1.122.191.252.286.367.355.436.73.857 1.1 1.279.136.15.266.313.4.463.361.4.736.776 1.111 1.164.157.163.314.34.477.5q.563.561 1.146 1.082c.177.17.348.34.525.51.4.361.825.708 1.241 1.062.164.143.334.3.5.436.518.429 1.05.83 1.582 1.239.082.061.157.122.232.177a46.861 46.861 0 0 0 3.907 2.6l.136.075a44.87 44.87 0 0 0 1.9 1.068c.143.075.286.143.43.211q.818.429 1.657.837l.716.306c.464.211.921.415 1.384.606.341.143.682.272 1.03.4s.716.279 1.071.4c.43.157.866.3 1.3.442.273.088.545.177.825.259.5.15.989.293 1.493.429.218.054.436.116.655.17.539.136 1.077.265 1.616.381.191.034.389.082.58.122.552.116 1.1.211 1.657.3l.6.1c.532.075 1.064.15 1.609.211.232.034.464.054.7.082.491.048.989.088 1.48.122.293.02.586.041.88.054.436.027.866.041 1.3.048.361.014.73.014 1.091.014s.723 0 1.084-.014c.436-.007.866-.02 1.3-.048.293-.014.586-.034.88-.054.5-.034.989-.075 1.486-.122.232-.027.464-.048.7-.082a57.167 57.167 0 0 0 1.6-.211l.6-.1c.552-.088 1.1-.184 1.657-.3.191-.041.389-.088.58-.122a40.934 40.934 0 0 0 1.616-.381c.218-.054.436-.116.655-.17q.757-.2 1.493-.429a48.525 48.525 0 0 0 2.125-.701c.361-.122.716-.265 1.077-.4.341-.129.682-.259 1.023-.4.464-.191.927-.395 1.391-.606.232-.1.47-.2.709-.306a53.808 53.808 0 0 0 1.664-.837c.143-.068.286-.136.423-.211.648-.347 1.282-.7 1.909-1.068.041-.027.089-.048.13-.075a46.859 46.859 0 0 0 3.907-2.6c.068-.048.143-.109.211-.163a39.518 39.518 0 0 0 1.6-1.252c.17-.136.334-.293.5-.429.423-.354.839-.708 1.241-1.068.177-.163.348-.333.518-.5.389-.361.777-.721 1.152-1.1.164-.163.314-.333.477-.5.375-.388.75-.769 1.111-1.17.13-.143.252-.3.382-.442.382-.436.757-.857 1.118-1.3.1-.109.177-.225.266-.333a48.243 48.243 0 0 0 3.048-4.267c.211-.333.43-.66.634-1 .157-.272.307-.551.464-.823.232-.408.464-.8.682-1.211.15-.286.293-.578.443-.871.2-.395.409-.8.6-1.2a46.67 46.67 0 0 0 .1-39.816"
            class="cls-6" fill="#81298d" data-name="Fill 7" transform="translate(87.103 127.237)" />
    </g>
</svg>
