<svg xmlns="http://www.w3.org/2000/svg" width="569" height="156.885" viewBox="0 0 569 156.885">
    <defs>
        <style>
            .cls-1{fill:none}.cls-2{clip-path:url(#clip-path)}.cls-12,.cls-3{fill:#ff9600}.cls-4{clip-path:url(#clip-path-2)}.cls-5{fill:#008cff}.cls-6{clip-path:url(#clip-path-3)}.cls-7{clip-path:url(#clip-path-4)}.cls-8{fill:#81298d}.cls-9{clip-path:url(#clip-path-5)}.cls-10{clip-path:url(#clip-path-6)}.cls-11{clip-path:url(#clip-path-7)}.cls-12{font-size:28px;font-family:NotoSansCJKkr-Regular,Noto Sans CJK KR}
        </style>
        <clipPath id="clip-path">
            <path id="Clip_2" d="M0 0h34.369v101.082H0z" class="cls-1" data-name="Clip 2"/>
        </clipPath>
        <clipPath id="clip-path-2">
            <path id="Clip_5" d="M0 0h48.607v94.395H0z" class="cls-1" data-name="Clip 5"/>
        </clipPath>
        <clipPath id="clip-path-3">
            <path id="Clip_8" d="M0 0h48.1v94.395H0z" class="cls-1" data-name="Clip 8"/>
        </clipPath>
        <clipPath id="clip-path-4">
            <path id="Clip_11" d="M0 0h33.894v57.765H0z" class="cls-1" data-name="Clip 11"/>
        </clipPath>
        <clipPath id="clip-path-5">
            <path id="Clip_14" d="M0 0h96.713v102.332H0z" class="cls-1" data-name="Clip 14"/>
        </clipPath>
        <clipPath id="clip-path-6">
            <path id="Clip_27" d="M0 0h22.742v33.871H0z" class="cls-1" data-name="Clip 27"/>
        </clipPath>
        <clipPath id="clip-path-7">
            <path id="Clip_44" d="M0 103.379h561.335V0H0z" class="cls-1" data-name="Clip 44"/>
        </clipPath>
    </defs>
    <g id="그룹_576" data-name="그룹 576" transform="translate(-75.335 -575.693)">
        <g id="Full_Logo" data-name="Full Logo" transform="translate(76 627)">
            <g id="Group_60" data-name="Group 60" transform="translate(1.101 1.065)">
                <g id="Group_3" data-name="Group 3" transform="translate(109.536 1.791)">
                    <path id="Clip_2-2" d="M0 0h34.369v101.082H0z" class="cls-1" data-name="Clip 2"/>
                    <g id="Group_3-2" class="cls-2" data-name="Group 3">
                        <path id="Fill_1" d="M34.369 84.5c0 9.156-7.694 16.578-17.185 16.578S0 93.661 0 84.5V16.578C0 7.422 7.692 0 17.184 0s17.185 7.422 17.185 16.578z" class="cls-3" data-name="Fill 1"/>
                    </g>
                </g>
                <g id="Group_6" data-name="Group 6" transform="translate(47.579)">
                    <path id="Clip_5-2" d="M0 0h48.607v94.395H0z" class="cls-1" data-name="Clip 5"/>
                    <g id="Group_6-2" class="cls-4" data-name="Group 6">
                        <path id="Fill_4" d="M38.759 1.583A17.134 17.134 0 0 0 16.1 9.738L0 45.63l15.451 34.447a16.644 16.644 0 0 1-.034 14.323c.012-.023.025-.045.035-.07l31.555-70.344a16.779 16.779 0 0 0-8.248-22.4" class="cls-5" data-name="Fill 4" transform="translate(0 -.001)"/>
                    </g>
                </g>
                <g id="Group_9" data-name="Group 9">
                    <path id="Clip_8-2" d="M0 0h48.1v94.395H0z" class="cls-1" data-name="Clip 8"/>
                    <g id="Group_9-2" class="cls-6" data-name="Group 9">
                        <path id="Fill_7" d="M32.806 80.077L48.1 45.63 32.165 9.738a16.868 16.868 0 0 0-30.58 14.248l31.221 70.34c.01.023.023.047.035.07a16.8 16.8 0 0 1-.035-14.318" class="cls-3" data-name="Fill 7" transform="translate(0 -.001)"/>
                    </g>
                </g>
                <g id="Group_12" data-name="Group 12" transform="translate(31.986 46.748)">
                    <path id="Clip_11-2" d="M0 0h33.894v57.765H0z" class="cls-1" data-name="Clip 11"/>
                    <g id="Group_12-2" class="cls-7" data-name="Group 12">
                        <path id="Fill_10" d="M32.3 34.056L16.948 0 1.59 34.056a16.384 16.384 0 0 0 .035 14.156c.07.147.146.29.22.434.052.1.1.2.158.305.079.148.164.292.248.436.055.1.107.193.166.287.077.125.156.247.236.37a16.494 16.494 0 0 0 1.083 1.493l.1.13c.127.155.263.3.4.454l.146.165c.129.142.263.277.4.414.057.059.114.122.173.18.132.132.272.259.411.386.065.059.127.12.191.178.146.13.3.254.446.379.06.051.122.1.184.155.186.15.376.3.572.439l.081.064a16.615 16.615 0 0 0 1.41.919l.047.028c.226.13.455.257.689.381.05.026.1.049.153.076.2.1.4.2.6.294l.255.112c.168.074.334.147.5.214.122.049.248.1.371.142s.258.1.387.145q.234.079.468.153c.1.031.2.064.3.094.179.054.359.1.54.152l.236.061c.193.048.387.092.582.135.07.013.141.03.211.043.2.04.4.076.6.107.072.013.144.023.216.035.191.03.387.054.58.078l.253.026a13.717 13.717 0 0 0 .852.064c.158.008.314.015.47.018h.785c.158 0 .315-.01.47-.018.106 0 .211-.012.317-.018.178-.013.359-.026.535-.046a15.848 15.848 0 0 0 .835-.104c.072-.012.144-.021.215-.035.2-.031.4-.068.6-.107.07-.013.139-.03.21-.043.195-.043.389-.087.582-.135.079-.02.158-.04.236-.063.179-.046.361-.1.538-.15.1-.03.2-.063.3-.094.156-.049.31-.1.465-.153.131-.046.262-.1.391-.145s.245-.092.367-.142c.169-.068.335-.14.5-.214l.258-.112c.2-.1.4-.195.6-.3l.154-.074q.347-.186.688-.381l.047-.028a15.715 15.715 0 0 0 1.409-.924c.027-.018.05-.038.075-.056q.294-.218.58-.445c.06-.049.119-.1.181-.153.151-.125.3-.251.448-.381.064-.058.124-.117.188-.175.139-.129.278-.257.414-.389.057-.058.114-.119.173-.178.136-.137.27-.274.4-.416.047-.051.092-.106.139-.158.136-.152.272-.3.4-.46.032-.04.062-.081.1-.12a16.566 16.566 0 0 0 1.1-1.518c.075-.117.154-.233.226-.355l.169-.292c.082-.144.166-.284.245-.431.055-.1.106-.206.161-.31.074-.142.146-.284.215-.429a16.378 16.378 0 0 0 .024-14.15" class="cls-8" data-name="Fill 10"/>
                    </g>
                </g>
                <g id="Group_15" data-name="Group 15" transform="translate(245.802 2.182)">
                    <path id="Clip_14-2" d="M0 0h96.713v102.332H0z" class="cls-1" data-name="Clip 14"/>
                    <g id="Group_15-2" class="cls-9" data-name="Group 15">
                        <path id="Fill_13" d="M95.12 78.745L63.73 9.573c-.012-.023-.025-.046-.035-.069-.071-.146-.146-.289-.22-.432-.052-.1-.1-.2-.156-.305-.081-.146-.166-.289-.25-.433-.055-.094-.107-.19-.165-.284-.077-.126-.16-.246-.238-.369A16.388 16.388 0 0 0 61.581 6.2l-.1-.13c-.128-.154-.262-.3-.4-.451-.05-.056-.1-.112-.146-.166-.129-.139-.267-.274-.4-.412-.057-.059-.114-.12-.173-.177-.134-.131-.274-.258-.411-.384-.064-.059-.126-.12-.193-.177-.144-.13-.294-.253-.445-.377-.06-.051-.121-.105-.185-.154a13.293 13.293 0 0 0-.655-.5c-.452-.327-.92-.633-1.41-.919-.015-.01-.032-.016-.047-.026a20.96 20.96 0 0 0-.688-.379l-.154-.075c-.2-.1-.4-.2-.6-.292-.084-.038-.17-.074-.255-.112a25.962 25.962 0 0 0-.5-.215l-.369-.141c-.129-.048-.259-.1-.388-.143-.156-.054-.312-.1-.467-.154l-.3-.092c-.178-.054-.358-.1-.537-.151l-.243-.066c-.193-.048-.388-.09-.584-.133-.071-.015-.139-.03-.21-.043-.2-.039-.4-.075-.6-.108l-.213-.034a17.826 17.826 0 0 0-1.371-.147l-.319-.02a18.132 18.132 0 0 0-.47-.016h-.784c-.158 0-.314.01-.47.016l-.319.02a13.82 13.82 0 0 0-.788.072c-.2.023-.39.048-.583.075l-.217.034c-.2.033-.4.069-.6.108-.071.013-.139.028-.21.043-.2.043-.391.085-.584.133l-.233.062a26.122 26.122 0 0 0-.837.243c-.156.051-.311.1-.465.154-.131.046-.26.1-.391.143l-.367.141c-.168.069-.334.141-.5.215-.086.038-.171.074-.255.112-.2.094-.4.192-.6.292l-.154.075c-.232.121-.462.249-.688.379-.017.01-.032.016-.047.026q-.735.428-1.412.919a12.81 12.81 0 0 0-.655.5c-.06.049-.121.1-.181.153-.151.125-.3.249-.45.379-.062.056-.124.117-.186.174-.139.128-.28.256-.415.387-.057.057-.114.118-.171.177a9.647 9.647 0 0 0-.4.412c-.047.053-.091.107-.139.159-.136.151-.272.3-.4.458-.034.039-.062.08-.1.12a16.482 16.482 0 0 0-1.1 1.51c-.076.117-.154.231-.227.351-.059.1-.114.2-.17.292-.082.143-.168.282-.247.427-.055.1-.1.205-.158.308-.074.141-.148.282-.218.428-.01.023-.024.044-.035.069L1.593 78.745A16.421 16.421 0 0 0 9.8 100.776a17.13 17.13 0 0 0 22.54-8.019l16.017-35.3 16.019 35.3a17.13 17.13 0 0 0 22.54 8.019 16.423 16.423 0 0 0 8.204-22.031" class="cls-3" data-name="Fill 13" transform="translate(0 -.001)"/>
                    </g>
                </g>
                <path id="Fill_16" d="M86.493 0H16.967A16.784 16.784 0 0 0 0 16.594a16.783 16.783 0 0 0 16.967 16.593h17.8v51.4a16.972 16.972 0 0 0 33.935 0v-51.4h17.791a16.785 16.785 0 0 0 16.968-16.593A16.785 16.785 0 0 0 86.493 0" class="cls-3" data-name="Fill 16" transform="translate(154.092 3.335)"/>
                <path id="Fill_18" d="M0 1.617A1.579 1.579 0 0 1 1.473 0h.282a1.814 1.814 0 0 1 1.476.933l15.481 25.012L34.19.933A1.736 1.736 0 0 1 35.665 0h.284a1.577 1.577 0 0 1 1.473 1.617v40.755a1.481 1.481 0 1 1-2.948 0V5.91L19.9 29.182a1.368 1.368 0 0 1-2.5 0L2.834 5.91v36.526a1.477 1.477 0 0 1-1.419 1.555A1.476 1.476 0 0 1 0 42.436z" class="cls-5" data-name="Fill 18" transform="translate(369.821 51.725)"/>
                <path id="Fill_20" d="M0 42.358V1.635A1.587 1.587 0 0 1 1.472 0h25.512a1.454 1.454 0 0 1 1.35 1.506 1.457 1.457 0 0 1-1.35 1.511H2.935V20.3h21.506a1.517 1.517 0 0 1 0 3.016H2.935v17.659h24.329a1.517 1.517 0 0 1 0 3.016H1.472A1.587 1.587 0 0 1 0 42.358" class="cls-5" data-name="Fill 20" transform="translate(420.451 51.725)"/>
                <path id="Fill_22" d="M38.164 43.991a1.755 1.755 0 0 1-1.526-1.237l-4.8-11.139H7.667l-4.8 11.2A1.563 1.563 0 0 1 1.4 43.991a1.4 1.4 0 0 1-1.4-1.36 2.376 2.376 0 0 1 .234-.99l17.5-40.095A2.134 2.134 0 0 1 19.782 0h.118a2.13 2.13 0 0 1 2.049 1.546l17.441 39.97a2.2 2.2 0 0 1 .234.988 1.475 1.475 0 0 1-1.46 1.487zM19.782 3.65L8.955 28.708h21.6z" class="cls-5" data-name="Fill 22" transform="translate(451.269 51.725)"/>
                <path id="Fill_24" d="M0 1.678A1.578 1.578 0 0 1 1.474.064h.454A1.818 1.818 0 0 1 3.406 1l26.776 37.212V1.554a1.425 1.425 0 1 1 2.838 0V42.56a1.278 1.278 0 0 1-1.19 1.369h-.23c-.569 0-1.021-.437-1.476-1.057L2.838 4.971v37.467a1.476 1.476 0 0 1-1.421 1.553A1.475 1.475 0 0 1 0 42.438z" class="cls-5" data-name="Fill 24" transform="translate(497.497 51.725)"/>
                <g id="Group_28" data-name="Group 28" transform="translate(541.726 63.77)">
                    <path id="Clip_27-2" d="M0 0h22.742v33.871H0z" class="cls-1" data-name="Clip 27"/>
                    <g id="Group_28-2" class="cls-10" data-name="Group 28">
                        <path id="Fill_26" d="M.533 29.652A1.736 1.736 0 0 1 0 28.437 1.5 1.5 0 0 1 1.422 26.9a1.566 1.566 0 0 1 .951.318 16.215 16.215 0 0 0 10.094 3.707c4.1 0 7.3-2.427 7.3-6.2V24.6c0-3.836-3.8-5.242-8.017-6.519-4.922-1.529-10.389-3.127-10.389-8.944v-.128C1.361 3.771 5.46 0 11.341 0a19.526 19.526 0 0 1 9.795 2.939 1.706 1.706 0 0 1 .773 1.4 1.5 1.5 0 0 1-1.427 1.535 1.453 1.453 0 0 1-.828-.256 15.923 15.923 0 0 0-8.43-2.683c-4.158 0-6.891 2.427-6.891 5.686v.129c0 3.642 4.1 4.984 8.43 6.328 4.871 1.47 9.98 3.387 9.98 9.138v.126c0 5.817-4.634 9.524-10.452 9.524A19.867 19.867 0 0 1 .533 29.652" class="cls-5" data-name="Fill 26"/>
                    </g>
                </g>
                <path id="Fill_29" d="M8.805 10.408a9.991 9.991 0 0 1-3.3.59A5.508 5.508 0 0 1 1.5 9.577 5.56 5.56 0 0 1 0 5.564C.018 2.349 2.214 0 5.811 0a6.608 6.608 0 0 1 2.676.495L8.15 1.63a5.534 5.534 0 0 0-2.369-.464A4.022 4.022 0 0 0 1.466 5.5c0 2.733 1.638 4.35 4.139 4.35a4.527 4.527 0 0 0 1.848-.288V6.347H5.271v-1.12h3.534z" class="cls-5" data-name="Fill 29" transform="translate(369.821 27.53)"/>
                <path id="Fill_31" d="M3.239 8.8C1.332 8.8 0 7.017 0 4.468 0 1.8 1.346 0 3.35 0 5.3 0 6.6 1.74 6.6 4.329 6.6 7.416 4.914 8.8 3.239 8.8zm.083-7.649c-1.437 0-2.08 1.642-2.08 3.27 0 1.874.863 3.235 2.053 3.235s2.054-1.375 2.054-3.27c0-1.561-.634-3.238-2.027-3.238z" class="cls-5" data-name="Fill 31" transform="translate(378.626 29.729)"/>
                <path id="Fill_33" d="M3.239 8.8C1.332 8.8 0 7.017 0 4.468 0 1.8 1.346 0 3.35 0 5.3 0 6.6 1.74 6.6 4.329 6.6 7.416 4.914 8.8 3.239 8.8zm.083-7.649c-1.438 0-2.082 1.642-2.082 3.27 0 1.874.864 3.235 2.054 3.235s2.054-1.375 2.054-3.27c.001-1.561-.633-3.238-2.026-3.238z" class="cls-5" data-name="Fill 33" transform="translate(387.431 29.729)"/>
                <path id="Fill_35" d="M2.99 13.2C1.257 13.2 0 11.3 0 8.694a5.512 5.512 0 0 1 1.316-3.959 2.542 2.542 0 0 1 1.818-.8 2.268 2.268 0 0 1 2.108 1.356h.032V0h1.272v10.708c0 .556.007 1.593.057 2.288H5.46l-.06-1.538h-.029A2.576 2.576 0 0 1 2.99 13.2zm.39-8c-1.255 0-2.1 1.375-2.1 3.423 0 1.991.813 3.278 2.07 3.278a2.088 2.088 0 0 0 1.865-1.926 3.46 3.46 0 0 0 .059-.7V7.744a3.59 3.59 0 0 0-.059-.679A2.021 2.021 0 0 0 3.38 5.2z" class="cls-5" data-name="Fill 35" transform="translate(396.236 25.33)"/>
                <path id="Fill_37" d="M1.53 0v4.6h5.729V0h1.546v11H7.259V5.842H1.53V11H0V0z" class="cls-5" data-name="Fill 37" transform="translate(409.444 27.53)"/>
                <path id="Fill_39" d="M2.53 8.8A2.367 2.367 0 0 1 0 6.382c0-2.018 1.738-3.13 4.893-3.13h.083v-.174A1.713 1.713 0 0 0 3.1 1.128a4.074 4.074 0 0 0-2.158.628L.6.746A5.064 5.064 0 0 1 3.318 0c2.6 0 3.146 1.872 3.146 3.443V6.59A12.109 12.109 0 0 0 6.6 8.609H5.234l-.121-1.061h-.051A3.065 3.065 0 0 1 2.53 8.8zm2.232-4.489a5.513 5.513 0 0 0-2.22.366A1.592 1.592 0 0 0 1.5 6.208a1.35 1.35 0 0 0 1.424 1.461 2.066 2.066 0 0 0 2-1.407 1.616 1.616 0 0 0 .085-.489V4.314h-.248z" class="cls-5" data-name="Fill 39" transform="translate(418.25 29.729)"/>
                <path id="Fill_41" d="M3.5 13.2a2.437 2.437 0 0 1-2.316-1.667h-.039L1.086 13H0c.025-.52.057-1.429.057-2.288V0H1.3v5.565h.03a2.517 2.517 0 0 1 2.359-1.63 2.343 2.343 0 0 1 1.683.726A5.369 5.369 0 0 1 6.6 8.455C6.6 11.714 5 13.2 3.5 13.2zm-.214-7.98c-.9 0-1.666.795-1.914 1.978l-.013.076a3.351 3.351 0 0 0-.061.582v1.591a3.92 3.92 0 0 0 .054.553v.035c.25 1.146.991 1.887 1.888 1.887 1.276 0 2.1-1.337 2.1-3.4.005-1.649-.631-3.304-2.051-3.304z" class="cls-5" data-name="Fill 41" transform="translate(427.055 25.33)"/>
                <path id="Clip_44-2" d="M0 103.379h561.335V0H0z" class="cls-1" data-name="Clip 44" transform="translate(2.201 1.135)"/>
                <g id="마스크_그룹_1" class="cls-11" data-name="마스크 그룹 1" transform="translate(2.201 1.135)">
                    <path id="Fill_43" d="M2 11H.22V3.114H2V11zm-.932-9.224A.965.965 0 0 1 0 .9 1 1 0 0 1 1.109 0C1.752 0 2.2.369 2.2.9a.731.731 0 0 1-.211.547 1.258 1.258 0 0 1-.921.329z" class="cls-5" data-name="Fill 43" transform="translate(433.659 26.395)"/>
                    <path id="Fill_45" d="M2.469 0v2.415H4.4v1.162H2.469v4.535c0 1.044.262 1.634 1.015 1.634a2.591 2.591 0 0 0 .78-.1l.063 1.148a2.964 2.964 0 0 1-1.2.208 1.77 1.77 0 0 1-1.458-.643 3.435 3.435 0 0 1-.519-2.193V3.577H0V2.415h1.15V.4z" class="cls-5" data-name="Fill 45" transform="translate(438.062 26.395)"/>
                    <path id="Fill_46" d="M.307 7.057a2.775 2.775 0 0 0 1.61.609A1.184 1.184 0 0 0 3.222 6.41c0-.731-.346-1.131-1.25-1.55A2.579 2.579 0 0 1 .2 2.473 2.3 2.3 0 0 1 2.516 0a2.836 2.836 0 0 1 1.651.522l-.305 1.115a2.254 2.254 0 0 0-1.377-.487A1.082 1.082 0 0 0 1.362 2.3c0 .7.4 1.012 1.278 1.43A2.606 2.606 0 0 1 4.4 6.271 2.352 2.352 0 0 1 1.891 8.8 3.247 3.247 0 0 1 0 8.222z" class="cls-5" data-name="Fill 46" transform="translate(442.464 28.594)"/>
                    <path id="Fill_47" d="M.943 13.2V5.564H0V4.339h.943v-.42A5.062 5.062 0 0 1 1.722.825 2.056 2.056 0 0 1 3.36 0 2.244 2.244 0 0 1 4.4.257L4.235 1.5a1.443 1.443 0 0 0-.778-.2c-1.042 0-1.3 1.208-1.3 2.562v.476h1.621v1.226H2.154V13.2z" class="cls-5" data-name="Fill 47" transform="translate(453.471 24.195)"/>
                    <path id="Fill_48" d="M3.239 8.8C1.332 8.8 0 7.017 0 4.468 0 1.8 1.346 0 3.35 0 5.3 0 6.6 1.74 6.6 4.329 6.6 7.416 4.914 8.8 3.239 8.8zm.083-7.649c-1.438 0-2.082 1.642-2.082 3.27 0 1.874.864 3.235 2.054 3.235s2.054-1.375 2.054-3.27c.001-1.561-.633-3.238-2.026-3.238z" class="cls-5" data-name="Fill 48" transform="translate(457.873 28.594)"/>
                    <path id="Fill_49" d="M.074 2.881C.074 1.867.055 1 0 .2h1.395l.057 1.687h.072A2.622 2.622 0 0 1 3.95 0a1.788 1.788 0 0 1 .45.054V1.53a2.4 2.4 0 0 0-.546-.054 2.219 2.219 0 0 0-2.133 2.01 4.528 4.528 0 0 0-.072.728V8.8H.074z" class="cls-5" data-name="Fill 49" transform="translate(466.679 28.594)"/>
                    <path id="Fill_50" d="M2.1 11a15.768 15.768 0 0 1-2.1-.128V.226A12.729 12.729 0 0 1 2.471 0a4.187 4.187 0 0 1 2.874.79 2.3 2.3 0 0 1 .872 1.91 2.557 2.557 0 0 1-1.775 2.374v.032A2.778 2.778 0 0 1 6.6 7.821a2.956 2.956 0 0 1-.88 2.166A5.162 5.162 0 0 1 2.1 11zm-.747-5.285v4.128a6.981 6.981 0 0 0 1.133.063c1.71 0 2.69-.766 2.69-2.1 0-1.308-1.012-2.088-2.706-2.088zm1.195-4.638a5.716 5.716 0 0 0-1.195.1v3.481h1.228c1.357 0 2.268-.73 2.268-1.815.001-1.156-.795-1.766-2.301-1.766z" class="cls-5" data-name="Fill 50" transform="translate(475.484 26.395)"/>
                    <path id="Fill_51" d="M3.679 8.8C1.41 8.8 0 7.17 0 4.549 0 1.871 1.444 0 3.511 0 5.793 0 6.6 2.139 6.6 3.971a5.917 5.917 0 0 1-.046.715H1.3c.028 1.832.988 2.928 2.57 2.928a4.422 4.422 0 0 0 2.07-.436l.234 1.1a5.5 5.5 0 0 1-2.495.522zM3.4 1.1c-1.453 0-1.995 1.565-2.086 2.49H5.29a2.953 2.953 0 0 0-.659-2.008A1.656 1.656 0 0 0 3.4 1.1z" class="cls-5" data-name="Fill 51" transform="translate(482.088 28.594)"/>
                    <path id="Fill_52" d="M2.469 0v2.415H4.4v1.162H2.469v4.535c0 1.044.262 1.634 1.015 1.634a2.591 2.591 0 0 0 .78-.1l.063 1.148a2.964 2.964 0 0 1-1.2.208 1.768 1.768 0 0 1-1.458-.643 3.435 3.435 0 0 1-.519-2.193V3.577H0V2.415h1.15V.4z" class="cls-5" data-name="Fill 52" transform="translate(490.893 26.395)"/>
                    <path id="Fill_53" d="M2.469 0v2.415H4.4v1.162H2.469v4.535c0 1.044.263 1.634 1.014 1.634a2.6 2.6 0 0 0 .782-.1l.061 1.148a2.962 2.962 0 0 1-1.2.208 1.771 1.771 0 0 1-1.457-.643 3.437 3.437 0 0 1-.52-2.189V3.577H0V2.415h1.151V.4z" class="cls-5" data-name="Fill 53" transform="translate(495.296 26.395)"/>
                    <path id="Fill_54" d="M3.681 8.8C1.41 8.8 0 7.17 0 4.549 0 1.871 1.444 0 3.511 0 5.793 0 6.6 2.139 6.6 3.971a5.917 5.917 0 0 1-.046.715H1.3c.028 1.832.987 2.928 2.568 2.928a4.446 4.446 0 0 0 2.076-.436l.232 1.1a5.472 5.472 0 0 1-2.495.522zM3.4 1.1c-1.454 0-2 1.565-2.088 2.49H5.29a2.944 2.944 0 0 0-.657-2.007A1.654 1.654 0 0 0 3.4 1.1z" class="cls-5" data-name="Fill 54" transform="translate(501.9 28.594)"/>
                    <path id="Fill_55" d="M.074 2.881C.074 1.867.055 1 0 .2h1.395l.057 1.687h.072A2.622 2.622 0 0 1 3.95 0a1.788 1.788 0 0 1 .45.054V1.53a2.4 2.4 0 0 0-.546-.054 2.219 2.219 0 0 0-2.133 2.01 4.541 4.541 0 0 0-.07.728V8.8H.074z" class="cls-5" data-name="Fill 55" transform="translate(508.504 28.594)"/>
                    <path id="Fill_56" d="M0 0h1.533v9.8H6.6V11H0z" class="cls-5" data-name="Fill 56" transform="translate(517.309 26.395)"/>
                    <path id="Fill_57" d="M2 11H.22V3.114H2V11zm-.93-9.224A.966.966 0 0 1 0 .9 1 1 0 0 1 1.109 0C1.752 0 2.2.369 2.2.9a.728.728 0 0 1-.209.546 1.256 1.256 0 0 1-.921.33z" class="cls-5" data-name="Fill 57" transform="translate(526.114 26.395)"/>
                    <path id="Fill_58" d="M.945 13.2V5.564H0V4.339h.945v-.42A5.062 5.062 0 0 1 1.724.825 2.054 2.054 0 0 1 3.362 0 2.233 2.233 0 0 1 4.4.257L4.237 1.5a1.443 1.443 0 0 0-.778-.2c-1.042 0-1.305 1.208-1.305 2.562v.476h1.624v1.226H2.154V13.2z" class="cls-5" data-name="Fill 58" transform="translate(528.315 24.195)"/>
                    <path id="Fill_59" d="M3.679 8.8C1.41 8.8 0 7.17 0 4.549 0 1.871 1.444 0 3.511 0 5.793 0 6.6 2.139 6.6 3.971a5.917 5.917 0 0 1-.046.715H1.3c.028 1.832.988 2.928 2.57 2.928a4.422 4.422 0 0 0 2.07-.436l.234 1.1a5.5 5.5 0 0 1-2.495.522zM3.4 1.1c-1.453 0-1.995 1.565-2.086 2.49H5.29a2.953 2.953 0 0 0-.659-2.008A1.656 1.656 0 0 0 3.4 1.1z" class="cls-5" data-name="Fill 59" transform="translate(532.718 28.594)"/>
                </g>
            </g>
        </g>
        <text id="데이터가_만드는_좋은_습관" class="cls-12" data-name="데이터가 만드는 좋은 습관" transform="translate(75.335 575.693)">
            <tspan x="0" y="32">데이터가 만드는 좋은 습관 ㅡ</tspan>
        </text>
    </g>
</svg>
