<svg xmlns="http://www.w3.org/2000/svg" id="Icon" width="1024" height="1024" viewBox="0 0 1024 1024">
    <defs>
        <style>
            .cls-1{fill:none}.cls-2{fill:#fff}.cls-3{clip-path:url(#clip-path)}.cls-4{fill:#008cff}.cls-5{clip-path:url(#clip-path-2)}.cls-6{fill:#ff9600}.cls-7{fill:#81298d}
        </style>
        <clipPath id="clip-path">
            <path id="Clip_2" d="M0 0h273.51v538.013H0z" class="cls-1" data-name="Clip 2"/>
        </clipPath>
        <clipPath id="clip-path-2">
            <path id="Clip_5" d="M0 0h273.444v538.019H0z" class="cls-1" data-name="Clip 5"/>
        </clipPath>
    </defs>
    <g id="그룹_8" data-name="그룹 8">
        <path id="Background" d="M0 0h1024v1024H0z" class="cls-2"/>
        <g id="Group_9" data-name="Group 9" transform="translate(232 220.722)">
            <g id="Group_3" data-name="Group 3" transform="translate(273.378 .003)">
                <path id="Clip_2-2" d="M0 0h273.51v538.013H0z" class="cls-1" data-name="Clip 2"/>
                <g id="Group_3-2" class="cls-3" data-name="Group 3">
                    <path id="Fill_1" d="M218.094 9.02A95.894 95.894 0 0 0 90.591 55.5L0 260.07 86.942 456.4a95.964 95.964 0 0 1-.195 81.614c.07-.139.139-.265.195-.391L264.5 136.693A96.135 96.135 0 0 0 218.094 9.02" class="cls-4" data-name="Fill 1"/>
                </g>
            </g>
            <g id="Group_6" data-name="Group 6">
                <path id="Clip_5-2" d="M0 0h273.444v538.019H0z" class="cls-1" data-name="Clip 5"/>
                <g id="Group_6-2" class="cls-5" data-name="Group 6">
                    <path id="Fill_4" d="M186.515 456.4l86.931-196.329L182.867 55.5A95.944 95.944 0 1 0 9 136.7l177.515 400.914c.056.139.125.265.195.4a96.039 96.039 0 0 1-.195-81.614" class="cls-6" data-name="Fill 4" transform="translate(-.002)"/>
                </g>
            </g>
            <path id="Fill_7" d="M182.984 195.732L96 0 9.011 195.732a95.422 95.422 0 0 0 .2 81.366c.4.834.822 1.669 1.24 2.489.307.584.585 1.168.892 1.752.446.848.934 1.669 1.407 2.5.32.556.613 1.112.948 1.641.418.737.892 1.432 1.338 2.128a97.106 97.106 0 0 0 6.131 8.58c.2.25.39.515.585.751.725.89 1.491 1.752 2.243 2.614.279.306.543.64.822.946.739.82 1.5 1.585 2.271 2.378.32.334.641.7.975 1.029q1.15 1.147 2.341 2.211c.362.348.711.7 1.073 1.043.822.737 1.686 1.446 2.536 2.169.334.292.683.612 1.031.89 1.059.876 2.146 1.7 3.233 2.531.167.125.32.25.474.362a95.763 95.763 0 0 0 7.985 5.312c.1.056.181.1.279.153a86.934 86.934 0 0 0 3.888 2.183c.293.153.585.292.878.431q1.672.876 3.386 1.71l1.463.626c.948.431 1.881.848 2.829 1.238.7.292 1.393.556 2.1.82s1.463.57 2.188.82c.878.32 1.77.612 2.648.9.557.181 1.115.362 1.686.528 1.017.306 2.021.6 3.052.876.446.111.892.236 1.338.348 1.1.278 2.2.542 3.3.779.39.07.794.167 1.184.25 1.129.236 2.257.431 3.386.612l1.226.209c1.087.153 2.174.306 3.289.431.474.07.948.111 1.435.167 1 .1 2.021.181 3.024.25.6.042 1.2.083 1.8.111.892.056 1.77.083 2.662.1.739.028 1.491.028 2.23.028s1.477 0 2.216-.028c.892-.014 1.77-.042 2.662-.1.6-.028 1.2-.07 1.8-.111 1.017-.07 2.021-.153 3.038-.25.474-.056.948-.1 1.435-.167 1.1-.125 2.188-.278 3.275-.431l1.226-.209a71.625 71.625 0 0 0 3.386-.612c.39-.083.794-.181 1.184-.25 1.115-.236 2.216-.5 3.3-.779.446-.111.892-.236 1.338-.348q1.547-.417 3.052-.876c.571-.167 1.129-.348 1.686-.528a95.76 95.76 0 0 0 2.648-.9c.739-.25 1.463-.542 2.2-.82.7-.264 1.393-.528 2.09-.82.948-.389 1.9-.807 2.843-1.238.474-.209.961-.417 1.449-.626a110.02 110.02 0 0 0 3.4-1.71c.293-.139.585-.278.864-.431 1.324-.709 2.62-1.432 3.9-2.183.084-.056.181-.1.265-.153a95.761 95.761 0 0 0 7.985-5.312c.139-.1.293-.222.432-.334a83.76 83.76 0 0 0 3.275-2.559c.348-.278.683-.6 1.031-.876a98.194 98.194 0 0 0 2.536-2.183c.362-.334.711-.681 1.059-1.015.794-.737 1.589-1.474 2.355-2.239.334-.334.641-.681.975-1.015.766-.793 1.533-1.571 2.271-2.392.265-.292.516-.612.78-.9.78-.89 1.547-1.752 2.285-2.656.2-.223.362-.459.543-.681a98.578 98.578 0 0 0 6.229-8.719c.432-.681.878-1.349 1.3-2.044.32-.556.627-1.126.948-1.683.474-.834.948-1.627 1.393-2.475.307-.584.6-1.182.906-1.78.418-.807.836-1.627 1.226-2.461a95.372 95.372 0 0 0 .2-81.366" class="cls-7" data-name="Fill 7" transform="translate(178 259.278)"/>
        </g>
    </g>
</svg>
